<svg xmlns="http://www.w3.org/2000/svg" xmlns:xlink="http://www.w3.org/1999/xlink" width="500" zoomAndPan="magnify" viewBox="0 0 375 374.999991" height="500" preserveAspectRatio="xMidYMid meet" version="1.0"><defs><clipPath id="91bd4ccfdc"><path d="M 123.132812 51.816406 L 375 51.816406 L 375 330.457031 L 123.132812 330.457031 Z M 123.132812 51.816406 " clip-rule="nonzero"/></clipPath></defs><path fill="#ffffff" d="M 105.492188 271.90625 L 155.820312 271.90625 C 159.363281 275.445312 163.167969 278.769531 167.167969 281.828125 C 175.695312 288.339844 185.140625 293.675781 195.304688 297.609375 C 205.449219 301.519531 216.316406 304.035156 227.640625 304.910156 C 227.925781 304.929688 228.230469 304.953125 228.539062 304.972656 C 229.128906 305.019531 229.71875 305.039062 230.332031 305.0625 C 230.898438 305.105469 231.488281 305.105469 232.058594 305.125 C 232.667969 305.148438 233.261719 305.171875 233.851562 305.171875 C 234.441406 305.171875 235.03125 305.191406 235.621094 305.191406 C 236.234375 305.191406 236.84375 305.171875 237.457031 305.171875 C 238.070312 305.171875 238.683594 305.148438 239.292969 305.125 C 239.644531 305.125 239.992188 305.105469 240.320312 305.082031 C 240.714844 305.082031 241.109375 305.0625 241.503906 305.039062 C 242.617188 304.972656 243.734375 304.910156 244.847656 304.820312 C 245.394531 304.777344 245.960938 304.734375 246.53125 304.667969 C 246.792969 304.644531 247.078125 304.625 247.363281 304.582031 C 247.820312 304.535156 248.28125 304.492188 248.71875 304.449219 C 249.679688 304.339844 250.640625 304.207031 251.582031 304.078125 C 251.867188 304.035156 252.128906 303.992188 252.414062 303.96875 C 252.804688 303.902344 253.222656 303.835938 253.613281 303.773438 C 254.226562 303.683594 254.816406 303.597656 255.40625 303.464844 C 255.976562 303.378906 256.542969 303.269531 257.113281 303.160156 C 257.617188 303.074219 258.117188 302.964844 258.621094 302.875 C 258.972656 302.789062 259.320312 302.722656 259.671875 302.65625 C 260.566406 302.460938 261.484375 302.265625 262.359375 302.046875 C 262.90625 301.914062 263.453125 301.78125 264 301.628906 C 264.042969 301.628906 264.085938 301.609375 264.152344 301.585938 C 264.675781 301.457031 265.179688 301.324219 265.707031 301.171875 C 266.273438 301.019531 266.820312 300.863281 267.386719 300.710938 C 267.957031 300.539062 268.503906 300.382812 269.070312 300.210938 C 269.617188 300.035156 270.1875 299.859375 270.734375 299.683594 C 271.28125 299.511719 271.847656 299.335938 272.394531 299.136719 C 273.402344 298.789062 274.40625 298.4375 275.414062 298.046875 C 276.046875 297.828125 276.660156 297.585938 277.269531 297.347656 C 278.34375 296.929688 279.414062 296.492188 280.484375 296.035156 C 281.007812 295.816406 281.535156 295.574219 282.058594 295.335938 C 282.582031 295.117188 283.109375 294.875 283.632812 294.636719 C 284.53125 294.199219 285.449219 293.761719 286.34375 293.324219 C 286.496094 293.257812 286.671875 293.171875 286.824219 293.085938 C 287.808594 292.582031 288.792969 292.058594 289.777344 291.53125 C 289.734375 291.488281 289.667969 291.421875 289.625 291.378906 C 299.070312 286.375 307.703125 280.101562 315.335938 272.757812 C 315.445312 272.628906 315.554688 272.539062 315.664062 272.453125 C 336.957031 251.777344 350.183594 222.859375 350.183594 190.839844 C 350.183594 131.460938 304.644531 82.699219 246.554688 77.582031 C 246.050781 77.539062 245.546875 77.496094 245.042969 77.453125 C 244.542969 77.410156 244.015625 77.367188 243.492188 77.34375 C 243.425781 77.320312 243.359375 77.320312 243.273438 77.320312 C 242.878906 77.300781 242.484375 77.277344 242.09375 77.257812 C 240.585938 77.167969 239.074219 77.101562 237.546875 77.082031 C 236.910156 77.082031 236.277344 77.058594 235.621094 77.058594 C 234.8125 77.058594 234.023438 77.082031 233.214844 77.101562 C 232.429688 77.101562 231.640625 77.125 230.855469 77.167969 C 230.003906 77.210938 229.148438 77.257812 228.296875 77.300781 C 227.640625 77.34375 226.984375 77.386719 226.328125 77.429688 C 226.175781 77.453125 226.046875 77.476562 225.890625 77.476562 C 225.410156 77.519531 224.90625 77.5625 224.425781 77.605469 C 224.273438 77.628906 224.121094 77.648438 223.96875 77.671875 C 223.683594 77.691406 223.421875 77.714844 223.160156 77.738281 C 222.570312 77.800781 221.976562 77.867188 221.410156 77.957031 C 220.621094 78.042969 219.859375 78.152344 219.09375 78.261719 C 218.347656 78.371094 217.648438 78.480469 216.929688 78.589844 C 216.820312 78.609375 216.710938 78.632812 216.601562 78.65625 C 215.902344 78.765625 215.199219 78.894531 214.480469 79.027344 C 213.867188 79.136719 213.253906 79.265625 212.621094 79.398438 C 212.425781 79.441406 212.207031 79.464844 211.988281 79.527344 C 211.308594 79.660156 210.632812 79.8125 209.953125 79.964844 C 194.210938 83.59375 179.695312 90.480469 167.167969 99.878906 L 77.023438 99.878906 L 77.023438 113.753906 L 90.777344 113.753906 L 90.777344 127.546875 L 67.777344 127.546875 L 67.777344 127.503906 L 62.417969 127.503906 L 62.417969 134.410156 C 62.375 134.824219 62.375 135.21875 62.417969 135.632812 L 62.417969 141.25 L 68.585938 141.25 C 68.890625 141.292969 69.175781 141.292969 69.503906 141.292969 C 69.808594 141.292969 70.117188 141.292969 70.421875 141.25 L 204.664062 141.25 C 204.707031 141.25 204.75 141.25 204.792969 141.25 C 204.816406 141.273438 204.835938 141.25 204.859375 141.273438 L 204.902344 141.273438 C 204.945312 141.292969 204.992188 141.292969 205.035156 141.316406 L 205.054688 141.316406 C 205.164062 141.359375 205.253906 141.402344 205.339844 141.492188 C 205.40625 141.535156 205.472656 141.601562 205.515625 141.664062 C 205.515625 141.664062 205.539062 141.664062 205.539062 141.6875 L 205.757812 141.6875 L 205.757812 208.632812 C 205.757812 208.675781 205.757812 208.742188 205.734375 208.808594 C 205.691406 209.089844 205.539062 209.308594 205.363281 209.484375 C 205.339844 209.484375 205.339844 209.484375 205.339844 209.484375 C 205.253906 209.550781 205.164062 209.617188 205.054688 209.636719 L 205.035156 209.660156 C 204.992188 209.683594 204.945312 209.683594 204.902344 209.683594 L 204.882812 209.703125 L 204.859375 209.703125 C 204.816406 209.703125 204.773438 209.703125 204.726562 209.703125 C 204.707031 209.703125 204.683594 209.726562 204.664062 209.726562 L 202.214844 209.726562 L 202.214844 210.207031 L 63.820312 210.207031 L 63.710938 210.183594 L 62.308594 210.183594 C 62.265625 210.183594 62.246094 210.207031 62.203125 210.207031 L 54.460938 210.207031 L 54.460938 217.113281 C 54.417969 217.550781 54.417969 218.007812 54.460938 218.425781 L 54.460938 223.996094 L 60.628906 223.996094 C 60.910156 224.019531 61.21875 224.042969 61.546875 224.042969 C 61.828125 224.042969 62.15625 224.042969 62.464844 223.996094 L 91.082031 223.996094 C 88.765625 227.210938 87.410156 231.121094 87.410156 235.363281 L 76.238281 235.363281 L 76.238281 249.152344 L 98.363281 249.152344 C 96.089844 247.753906 94.1875 245.808594 92.832031 243.492188 C 91.453125 241.089844 90.667969 238.3125 90.667969 235.363281 C 90.667969 230.925781 92.4375 226.925781 95.300781 223.996094 C 95.871094 223.40625 96.484375 222.859375 97.140625 222.378906 C 99.851562 220.324219 103.238281 219.125 106.890625 219.125 C 107.128906 219.125 107.371094 219.144531 107.613281 219.144531 C 111 219.296875 114.105469 220.480469 116.617188 222.378906 C 116.835938 222.53125 117.035156 222.6875 117.230469 222.859375 C 117.667969 223.210938 118.082031 223.605469 118.457031 223.996094 C 121.339844 226.902344 123.113281 230.925781 123.113281 235.363281 C 123.113281 236.566406 122.980469 237.722656 122.742188 238.859375 C 122.367188 240.5 121.777344 242.050781 120.949219 243.492188 C 120.007812 245.066406 118.828125 246.507812 117.429688 247.667969 C 114.609375 250.117188 110.914062 251.578125 106.890625 251.578125 C 106.582031 251.578125 106.300781 251.578125 105.992188 251.558594 L 105.992188 260.539062 L 94.253906 260.539062 C 94.164062 260.5625 94.054688 260.585938 93.96875 260.585938 C 93.859375 260.585938 93.75 260.5625 93.664062 260.539062 L 91.628906 260.539062 L 91.628906 271.90625 Z M 289.753906 235.363281 L 270.273438 235.363281 C 270.273438 231.1875 268.960938 227.296875 266.734375 224.128906 C 263.320312 219.320312 257.789062 216.105469 251.492188 215.890625 C 251.253906 215.890625 251.035156 215.890625 250.792969 215.890625 C 245.089844 215.890625 239.972656 218.335938 236.410156 222.25 C 233.238281 225.703125 231.3125 230.3125 231.3125 235.363281 L 126.238281 235.363281 L 126.371094 235.363281 C 126.371094 231.121094 125.015625 227.210938 122.71875 223.996094 L 218.347656 223.996094 L 218.347656 141.25 L 251.320312 141.25 C 253.613281 141.292969 255.867188 141.578125 258.03125 142.058594 C 272.484375 145.335938 283.261719 158.277344 283.261719 173.707031 L 283.261719 222.378906 C 286.847656 222.378906 289.753906 225.285156 289.753906 228.871094 Z M 261.703125 247.363281 C 261.507812 247.558594 261.3125 247.710938 261.113281 247.886719 C 258.359375 250.160156 254.839844 251.535156 250.992188 251.578125 C 250.992188 251.578125 250.992188 251.578125 250.96875 251.578125 L 250.792969 251.578125 C 244.804688 251.578125 239.554688 248.324219 236.757812 243.492188 C 236.625 243.273438 236.519531 243.078125 236.410156 242.859375 C 235.226562 240.609375 234.570312 238.050781 234.570312 235.363281 C 234.570312 232.652344 235.226562 230.09375 236.410156 227.84375 C 239.121094 222.664062 244.542969 219.125 250.792969 219.125 C 251.230469 219.125 251.691406 219.144531 252.105469 219.1875 C 258.425781 219.691406 263.738281 223.824219 265.921875 229.484375 C 266.644531 231.296875 267.039062 233.285156 267.039062 235.363281 C 267.039062 240.105469 264.984375 244.390625 261.703125 247.363281 " fill-opacity="1" fill-rule="evenodd"/><path fill="#ffffff" d="M 34.894531 127.460938 L 21.140625 127.460938 L 21.140625 141.25 L 34.894531 141.25 L 34.894531 127.460938 " fill-opacity="1" fill-rule="evenodd"/><path fill="#ffffff" d="M 0 168.8125 L 13.773438 168.8125 L 13.773438 155.019531 L 0 155.019531 L 0 168.8125 " fill-opacity="1" fill-rule="evenodd"/><path fill="#ffffff" d="M 26.9375 223.996094 L 40.710938 223.996094 L 40.710938 210.207031 L 26.9375 210.207031 L 26.9375 223.996094 " fill-opacity="1" fill-rule="evenodd"/><path fill="#ffffff" d="M 115 235.363281 C 115 230.882812 111.371094 227.253906 106.890625 227.253906 C 102.40625 227.253906 98.777344 230.882812 98.777344 235.363281 C 98.777344 239.84375 102.40625 243.472656 106.890625 243.472656 C 111.371094 243.472656 115 239.84375 115 235.363281 " fill-opacity="1" fill-rule="evenodd"/><path fill="#ffffff" d="M 63.273438 113.667969 L 63.273438 99.878906 L 62.09375 99.878906 L 61.765625 99.921875 L 54.460938 99.921875 L 54.460938 99.964844 L 49.5 99.964844 L 49.5 113.753906 L 63.273438 113.753906 L 63.273438 113.667969 " fill-opacity="1" fill-rule="evenodd"/><path fill="#ffffff" d="M 27.527344 168.8125 L 60.453125 168.8125 L 60.453125 155.0625 L 27.527344 155.0625 L 27.527344 168.8125 " fill-opacity="1" fill-rule="evenodd"/><path fill="#ffffff" d="M 256.390625 151.675781 C 255.910156 151.566406 255.453125 151.457031 254.96875 151.371094 C 253.636719 151.128906 252.238281 151 250.792969 151 L 228.078125 151 L 228.078125 185.878906 L 273.53125 185.878906 L 273.53125 173.707031 C 273.53125 167.433594 270.972656 161.75 266.863281 157.640625 C 264.023438 154.800781 260.414062 152.703125 256.390625 151.675781 " fill-opacity="1" fill-rule="evenodd"/><path fill="#ffffff" d="M 254.183594 227.976562 C 253.417969 227.625 252.585938 227.40625 251.734375 227.296875 C 251.710938 227.296875 251.710938 227.296875 251.691406 227.296875 C 251.515625 227.277344 251.339844 227.277344 251.167969 227.277344 C 251.035156 227.253906 250.925781 227.253906 250.792969 227.253906 C 246.3125 227.253906 242.683594 230.882812 242.683594 235.363281 C 242.683594 239.84375 246.3125 243.472656 250.792969 243.472656 C 253.789062 243.472656 256.371094 241.875 257.789062 239.492188 C 258.511719 238.269531 258.925781 236.871094 258.925781 235.363281 C 258.925781 232.085938 256.980469 229.265625 254.183594 227.976562 " fill-opacity="1" fill-rule="evenodd"/><path fill="#ffffff" d="M 48.625 249.152344 L 62.417969 249.152344 L 62.417969 235.363281 L 48.625 235.363281 L 48.625 249.152344 " fill-opacity="1" fill-rule="evenodd"/><path fill="#ffffff" d="M 74.226562 196.414062 L 74.226562 182.667969 L 46.65625 182.667969 L 46.65625 196.457031 L 74.226562 196.457031 L 74.226562 196.414062 " fill-opacity="1" fill-rule="evenodd"/><g clip-path="url(#91bd4ccfdc)"><path fill="#333333" d="M 375 191.125 C 375 152.988281 359.609375 118.410156 334.707031 93.210938 L 334.792969 93.210938 L 332.957031 91.484375 L 331.710938 90.304688 C 330.921875 89.515625 330.113281 88.773438 329.285156 88.03125 C 329.285156 88.03125 329.261719 88.007812 329.238281 88.007812 C 327.992188 86.871094 326.746094 85.757812 325.457031 84.6875 C 321.632812 81.429688 317.628906 78.414062 313.5 75.617188 C 312.144531 74.699219 310.742188 73.804688 309.367188 72.929688 C 309.324219 72.90625 309.300781 72.886719 309.277344 72.886719 C 307.203125 71.574219 305.101562 70.347656 302.960938 69.148438 C 298.71875 66.808594 294.367188 64.6875 289.90625 62.808594 C 289.886719 62.789062 289.84375 62.765625 289.820312 62.742188 C 288.355469 62.132812 286.867188 61.542969 285.382812 60.972656 C 284.640625 60.6875 283.875 60.40625 283.109375 60.121094 C 283.066406 60.097656 283.042969 60.097656 283.019531 60.078125 C 281.511719 59.53125 279.980469 59.027344 278.453125 58.527344 C 276.878906 58.023438 275.304688 57.542969 273.730469 57.105469 C 273.183594 56.929688 272.636719 56.777344 272.089844 56.644531 C 271.519531 56.492188 270.972656 56.339844 270.40625 56.1875 C 269.859375 56.054688 269.3125 55.902344 268.746094 55.773438 C 265.488281 54.984375 262.183594 54.308594 258.863281 53.738281 C 258.511719 53.671875 258.164062 53.628906 257.8125 53.5625 C 257.484375 53.519531 257.15625 53.453125 256.828125 53.410156 C 256.238281 53.324219 255.667969 53.234375 255.078125 53.148438 C 254.707031 53.105469 254.335938 53.039062 253.941406 52.996094 C 253.394531 52.929688 252.847656 52.863281 252.304688 52.800781 C 251.757812 52.734375 251.210938 52.667969 250.640625 52.601562 C 250.027344 52.535156 249.417969 52.472656 248.78125 52.425781 C 248.300781 52.363281 247.820312 52.320312 247.339844 52.296875 C 246.117188 52.1875 244.914062 52.101562 243.6875 52.035156 C 243.25 52.011719 242.792969 51.992188 242.332031 51.96875 C 241.785156 51.945312 241.21875 51.902344 240.648438 51.902344 C 240.101562 51.859375 239.554688 51.859375 238.988281 51.835938 C 237.875 51.816406 236.734375 51.792969 235.621094 51.792969 C 234.769531 51.792969 233.894531 51.816406 233.042969 51.835938 C 232.886719 51.835938 232.777344 51.835938 232.648438 51.835938 C 231.839844 51.859375 231.050781 51.859375 230.242188 51.902344 C 230.113281 51.902344 229.980469 51.902344 229.847656 51.925781 C 229.085938 51.945312 228.296875 51.992188 227.53125 52.035156 C 227.355469 52.054688 227.203125 52.054688 227.050781 52.054688 C 226.328125 52.101562 225.609375 52.144531 224.90625 52.210938 C 224.601562 52.230469 224.273438 52.253906 223.96875 52.273438 C 223.441406 52.320312 222.960938 52.363281 222.460938 52.425781 C 222.085938 52.449219 221.738281 52.492188 221.386719 52.515625 C 220.820312 52.582031 220.230469 52.644531 219.640625 52.710938 C 219.070312 52.777344 218.480469 52.84375 217.890625 52.910156 C 217.320312 52.996094 216.730469 53.0625 216.164062 53.148438 C 199.109375 55.507812 182.777344 61.015625 167.757812 69.453125 C 167.277344 69.714844 166.773438 70 166.292969 70.285156 C 165.351562 70.832031 164.414062 71.398438 163.472656 71.96875 C 162.464844 72.578125 161.460938 73.210938 160.453125 73.847656 C 160.082031 74.085938 159.734375 74.304688 159.363281 74.566406 C 158.75 74.9375 158.160156 75.355469 157.570312 75.769531 C 157.480469 75.8125 157.417969 75.855469 157.351562 75.902344 L 139.269531 82.0625 L 170.554688 82.0625 L 170.949219 81.824219 C 171.5625 81.453125 172.171875 81.101562 172.785156 80.753906 C 173.945312 80.074219 175.101562 79.441406 176.304688 78.808594 C 177.027344 78.414062 177.769531 78.042969 178.515625 77.671875 C 179.5625 77.125 180.613281 76.621094 181.664062 76.140625 C 182.449219 75.769531 183.238281 75.398438 184.046875 75.046875 C 184.15625 74.984375 184.285156 74.917969 184.417969 74.875 C 185.140625 74.566406 185.839844 74.238281 186.558594 73.957031 C 187.347656 73.605469 188.15625 73.300781 188.941406 72.972656 C 188.988281 72.949219 189.007812 72.949219 189.050781 72.929688 C 189.882812 72.601562 190.714844 72.292969 191.542969 71.96875 C 192.398438 71.660156 193.226562 71.375 194.082031 71.070312 C 199.132812 69.324219 204.292969 67.902344 209.539062 66.785156 C 209.539062 66.785156 209.558594 66.785156 209.582031 66.785156 C 211.199219 66.4375 212.839844 66.132812 214.480469 65.867188 C 214.742188 65.804688 215.003906 65.761719 215.289062 65.714844 C 216.011719 65.605469 216.753906 65.496094 217.519531 65.386719 C 217.605469 65.367188 217.714844 65.34375 217.800781 65.34375 C 218.613281 65.234375 219.398438 65.125 220.1875 65.039062 C 221.082031 64.929688 221.976562 64.820312 222.875 64.734375 C 223.574219 64.667969 224.273438 64.601562 224.996094 64.535156 C 226.328125 64.425781 227.683594 64.339844 229.039062 64.25 C 229.675781 64.230469 230.285156 64.207031 230.921875 64.1875 C 231.3125 64.164062 231.707031 64.140625 232.101562 64.140625 C 232.605469 64.121094 233.128906 64.121094 233.632812 64.097656 C 234.289062 64.097656 234.945312 64.097656 235.621094 64.097656 C 236.539062 64.097656 237.457031 64.097656 238.355469 64.121094 C 239.25 64.140625 240.125 64.164062 241.019531 64.207031 C 241.085938 64.207031 241.152344 64.207031 241.238281 64.207031 C 242.136719 64.25 243.011719 64.296875 243.886719 64.359375 C 244.78125 64.425781 245.65625 64.492188 246.554688 64.558594 C 269.09375 66.523438 290.871094 74.523438 309.324219 87.679688 C 310.085938 88.226562 310.851562 88.796875 311.617188 89.363281 C 311.660156 89.40625 311.683594 89.429688 311.726562 89.453125 C 313.191406 90.542969 314.613281 91.660156 316.035156 92.839844 L 316.492188 93.210938 L 316.515625 93.210938 C 344.71875 116.53125 362.710938 151.761719 362.710938 191.125 C 362.710938 237.417969 337.832031 277.980469 300.730469 300.210938 L 300.707031 300.210938 L 300.292969 300.429688 C 295.265625 303.421875 290.039062 306.042969 284.683594 308.296875 C 281.25 309.738281 277.796875 311.027344 274.253906 312.144531 C 272.746094 312.625 271.238281 313.082031 269.707031 313.519531 C 267.761719 314.042969 265.816406 314.546875 263.847656 315.003906 C 263.671875 315.027344 263.519531 315.070312 263.367188 315.113281 C 262.90625 315.203125 262.46875 315.3125 262.011719 315.398438 C 261.027344 315.617188 260.0625 315.816406 259.058594 315.988281 C 259.015625 315.988281 258.949219 316.011719 258.882812 316.011719 C 257.964844 316.207031 257.027344 316.359375 256.105469 316.515625 C 254.925781 316.6875 253.769531 316.863281 252.609375 317.039062 C 251.210938 317.214844 249.789062 317.367188 248.390625 317.519531 C 247.691406 317.585938 246.988281 317.671875 246.269531 317.714844 C 244.914062 317.824219 243.558594 317.933594 242.203125 318 C 241.589844 318.023438 240.957031 318.042969 240.34375 318.085938 C 239.929688 318.085938 239.554688 318.109375 239.140625 318.109375 C 238.636719 318.132812 238.136719 318.132812 237.632812 318.152344 C 236.953125 318.152344 236.300781 318.152344 235.621094 318.152344 C 234.703125 318.152344 233.804688 318.152344 232.886719 318.132812 C 231.992188 318.109375 231.117188 318.085938 230.222656 318.042969 C 230.15625 318.042969 230.089844 318.042969 230.023438 318.042969 C 229.128906 318 228.230469 317.957031 227.355469 317.890625 C 226.460938 317.824219 225.585938 317.757812 224.710938 317.695312 C 204.136719 315.902344 184.242188 309.082031 166.90625 297.9375 C 165.722656 297.171875 164.566406 296.40625 163.40625 295.597656 C 162.117188 294.703125 160.871094 293.804688 159.644531 292.886719 C 159.601562 292.867188 159.558594 292.84375 159.535156 292.800781 C 158.792969 292.253906 158.070312 291.707031 157.351562 291.140625 C 156.628906 290.570312 155.929688 290.003906 155.207031 289.433594 C 155.054688 289.304688 154.902344 289.171875 154.75 289.039062 L 123.484375 289.039062 L 143.96875 296.011719 L 143.992188 296.011719 C 144.582031 296.539062 145.171875 297.0625 145.785156 297.566406 C 147.488281 299.007812 149.21875 300.40625 150.988281 301.761719 C 151.796875 302.371094 152.605469 302.984375 153.414062 303.574219 C 153.941406 303.96875 154.488281 304.339844 155.011719 304.734375 C 156.871094 306.042969 158.75 307.3125 160.652344 308.558594 C 162.511719 309.738281 164.390625 310.898438 166.3125 311.988281 C 173.179688 315.921875 180.351562 319.289062 187.761719 322 C 188.285156 322.195312 188.832031 322.371094 189.359375 322.566406 C 189.949219 322.765625 190.539062 322.984375 191.152344 323.179688 C 192.027344 323.484375 192.898438 323.769531 193.773438 324.03125 C 194.039062 324.121094 194.277344 324.183594 194.519531 324.273438 C 195.523438 324.578125 196.507812 324.863281 197.511719 325.167969 C 199.722656 325.78125 201.953125 326.371094 204.183594 326.875 C 207.546875 327.660156 210.980469 328.316406 214.4375 328.839844 C 215.003906 328.929688 215.574219 329.015625 216.164062 329.101562 C 216.6875 329.167969 217.210938 329.234375 217.738281 329.300781 C 218.128906 329.363281 218.546875 329.410156 218.941406 329.453125 C 219.507812 329.539062 220.054688 329.582031 220.601562 329.648438 C 221.519531 329.757812 222.4375 329.824219 223.378906 329.910156 C 223.902344 329.957031 224.40625 330 224.90625 330.042969 C 225.78125 330.109375 226.679688 330.175781 227.554688 330.21875 C 228.011719 330.238281 228.449219 330.28125 228.910156 330.28125 C 229.476562 330.328125 230.023438 330.347656 230.59375 330.347656 C 231.664062 330.390625 232.734375 330.4375 233.828125 330.4375 C 234.417969 330.457031 235.03125 330.457031 235.621094 330.457031 C 236.496094 330.457031 237.347656 330.4375 238.222656 330.4375 C 238.355469 330.4375 238.484375 330.4375 238.617188 330.414062 C 239.425781 330.390625 240.210938 330.390625 241 330.347656 C 241.152344 330.347656 241.261719 330.347656 241.394531 330.328125 C 242.179688 330.304688 242.945312 330.261719 243.734375 330.21875 C 243.886719 330.21875 244.039062 330.21875 244.191406 330.195312 C 244.914062 330.152344 245.632812 330.109375 246.335938 330.042969 C 246.664062 330.019531 246.988281 330 247.296875 329.976562 C 247.800781 329.933594 248.300781 329.890625 248.804688 329.824219 C 249.15625 329.800781 249.503906 329.757812 249.855469 329.738281 C 250.445312 329.671875 251.011719 329.605469 251.601562 329.539062 C 252.195312 329.472656 252.785156 329.410156 253.351562 329.320312 C 255.035156 329.125 256.699219 328.882812 258.335938 328.601562 C 271.914062 326.394531 285.011719 322.195312 297.296875 316.054688 C 297.339844 316.054688 297.386719 316.03125 297.429688 316.011719 C 298.851562 315.289062 300.292969 314.546875 301.714844 313.78125 C 302.195312 313.519531 302.675781 313.257812 303.15625 312.972656 C 303.902344 312.578125 304.621094 312.164062 305.34375 311.726562 C 306.152344 311.269531 306.984375 310.789062 307.769531 310.285156 C 308.273438 310 308.777344 309.695312 309.277344 309.367188 C 309.957031 308.929688 310.65625 308.492188 311.332031 308.054688 C 311.355469 308.054688 311.378906 308.035156 311.398438 308.011719 C 312.097656 307.554688 312.796875 307.09375 313.5 306.636719 C 313.5625 306.589844 313.628906 306.527344 313.695312 306.480469 C 314.460938 305.957031 315.226562 305.433594 315.992188 304.910156 C 316.757812 304.363281 317.5 303.816406 318.265625 303.246094 L 319.226562 302.546875 L 322.398438 300.210938 L 322.242188 300.210938 C 354.382812 274.660156 375 235.253906 375 191.125 " fill-opacity="1" fill-rule="evenodd"/></g></svg>